<?xml version="1.0" encoding="UTF-8"?>
<svg version="1.1" xmlns="http://www.w3.org/2000/svg" width="1024" height="1024">
<path d="M0 0 C13.05597896 10.89333213 19.78526373 28.33783086 27.359375 43.1875 C27.730625 43.91340332 28.101875 44.63930664 28.484375 45.38720703 C33.47438926 55.1698766 38.19769236 65.07995502 42.9375 74.9855957 C46.6293956 82.69277738 50.39736906 90.3553305 54.24755859 97.984375 C60.91034758 111.18705567 67.51345929 124.41105327 73.86254883 137.76782227 C77.7772796 145.99587206 81.75303273 154.19337596 85.73983765 162.38665771 C92.66898741 176.62725515 99.55842062 190.88513367 106.359375 205.1875 C107.03838765 206.61459466 107.71742588 208.04167715 108.39648438 209.46875 C116.91011076 227.3627344 125.40369722 245.26605757 133.859375 263.1875 C139.8689493 275.92200268 145.88564866 288.65310494 151.921875 301.375 C152.51926483 302.63407166 152.51926483 302.63407166 153.12872314 303.9185791 C158.92970438 316.13802451 164.80537871 328.3192748 170.72915649 340.47958374 C175.83592788 350.96891589 180.80280059 361.51387145 185.68652344 372.10913086 C189.86072232 381.15519369 194.14650778 390.14402514 198.49121094 399.109375 C206.26329606 415.18211176 206.26329606 415.18211176 205.359375 422.1875 C202.23123991 426.41968278 199.35380649 427.85616521 194.359375 429.1875 C191.63841644 429.38475985 189.02362154 429.49115531 186.3046875 429.48828125 C185.53453308 429.49388062 184.76437866 429.49947998 183.97088623 429.50524902 C181.47518309 429.51714794 178.9800775 429.51088823 176.484375 429.5 C175.20533295 429.49726578 175.20533295 429.49726578 173.90045166 429.49447632 C136.40455119 429.35932026 96.95160335 422.677137 68.734375 395.9375 C61.29257498 388.23228102 56.44600663 378.87265372 51.921875 369.25 C51.17260742 367.67508789 51.17260742 367.67508789 50.40820312 366.06835938 C45.53610102 355.73808212 40.93262936 345.28924243 36.32385254 334.83963013 C31.63292199 324.20693731 26.80679435 313.66333177 21.72436523 303.21044922 C18.0332125 295.6183269 14.4590407 287.97750067 10.921875 280.3125 C5.04357873 267.59186337 -1.01148252 254.96205654 -7.11474609 242.34814453 C-9.45052145 237.50991289 -11.76421602 232.6612162 -14.078125 227.8125 C-15.93087391 223.93682076 -17.78542044 220.06200431 -19.640625 216.1875 C-20.16205078 215.09808105 -20.68347656 214.00866211 -21.22070312 212.88623047 C-27.70957314 199.34349142 -34.25699979 185.82925001 -40.93057251 172.37643433 C-41.59720427 171.0308954 -42.26183364 169.68436199 -42.92416382 168.33670044 C-46.4970187 161.07420815 -50.244314 153.95735435 -54.37109375 146.9921875 C-54.73705154 146.36861359 -55.10300934 145.74503967 -55.48005676 145.10256958 C-57.53360639 141.70074103 -59.56292819 138.72587808 -62.640625 136.1875 C-66.140625 135.4375 -66.140625 135.4375 -69.640625 136.1875 C-72.93992151 139.20399966 -74.57087913 142.95625236 -76.46582031 146.93017578 C-77.63538071 149.17742337 -78.9475062 151.18017067 -80.39453125 153.2578125 C-83.87495036 158.41930783 -86.79054341 163.81617669 -89.703125 169.3125 C-94.08488352 177.49548452 -98.54492444 185.62271479 -103.140625 193.6875 C-108.1550463 202.49596537 -113.01947444 211.37581423 -117.80957031 220.30810547 C-120.49791557 225.3018011 -123.23549494 230.25525006 -126.08984375 235.15625 C-126.64406006 236.10870605 -127.19827637 237.06116211 -127.76928711 238.04248047 C-128.82029914 239.83811103 -129.87924088 241.6291329 -130.94750977 243.41455078 C-133.42567862 247.64528133 -135.42951201 251.16602684 -135.640625 256.1875 C-135.310625 257.1775 -134.980625 258.1675 -134.640625 259.1875 C-130.72437799 259.38456355 -126.80762134 259.56849159 -122.890625 259.75 C-121.77945313 259.80607422 -120.66828125 259.86214844 -119.5234375 259.91992188 C-117.91855469 259.99243164 -117.91855469 259.99243164 -116.28125 260.06640625 C-114.80446777 260.13710327 -114.80446777 260.13710327 -113.29785156 260.20922852 C-110.8699442 260.18937518 -108.94900943 259.89869313 -106.640625 259.1875 C-106.640625 259.8475 -106.640625 260.5075 -106.640625 261.1875 C-105.37955933 261.17964478 -105.37955933 261.17964478 -104.09301758 261.17163086 C-100.90779891 261.15436384 -97.72260446 261.14194226 -94.53735352 261.13256836 C-93.17113448 261.12760727 -91.80492056 261.12083628 -90.4387207 261.11206055 C-81.45196499 261.05587267 -72.58908726 261.34049477 -63.640625 262.1875 C-63.640625 262.8475 -63.640625 263.5075 -63.640625 264.1875 C-62.526875 264.496875 -62.526875 264.496875 -61.390625 264.8125 C-57.69023309 266.66269595 -56.53792099 268.52842917 -54.640625 272.1875 C-53.38505532 279.27777582 -53.45706349 286.3786989 -53.453125 293.5625 C-53.44087891 294.73039062 -53.42863281 295.89828125 -53.41601562 297.1015625 C-53.39709669 308.35202388 -54.03976507 318.48822259 -62.27807617 326.84936523 C-67.71058888 331.70329267 -73.54766867 335.39898369 -79.828125 339.0625 C-80.91109863 339.70324463 -81.99407227 340.34398926 -83.10986328 341.00415039 C-86.01896362 342.72244793 -88.93226977 344.43305209 -91.84869385 346.13885498 C-94.22946098 347.53208908 -96.60775999 348.92950829 -98.98617554 350.32675171 C-103.21899747 352.81316409 -107.45329353 355.29702921 -111.69140625 357.77441406 C-119.92379659 362.58702603 -128.13154709 367.43905202 -136.328125 372.3125 C-146.40904458 378.30344649 -156.54423193 384.19012355 -166.71118164 390.03344727 C-172.25877473 393.2251724 -177.78962338 396.43689399 -183.265625 399.75 C-193.64943009 406.02354891 -204.1081865 412.16672059 -214.640625 418.1875 C-215.52959473 418.69587402 -216.41856445 419.20424805 -217.33447266 419.72802734 C-235.57174316 430.04883155 -251.70451156 433.33822016 -272.63671875 433.390625 C-273.40146074 433.39345238 -274.16620274 433.39627975 -274.95411873 433.39919281 C-278.99749209 433.41411278 -283.04083039 433.4233889 -287.08422852 433.42773438 C-291.23769173 433.43322326 -295.39082787 433.45728063 -299.5441885 433.48570633 C-302.76057351 433.50441192 -305.97688072 433.5095424 -309.19331551 433.51107025 C-310.72378397 433.51407702 -312.25425172 433.52203793 -313.78466606 433.53525543 C-331.65329645 433.67862999 -331.65329645 433.67862999 -339.140625 428.4375 C-341.22593971 425.30952794 -341.42798562 422.93381918 -341.640625 419.1875 C-340.74706119 416.66927471 -339.85848574 414.67719301 -338.578125 412.375 C-338.22669434 411.70903809 -337.87526367 411.04307617 -337.51318359 410.35693359 C-336.70437482 408.83249677 -335.88632019 407.31294366 -335.06103516 405.79736328 C-333.46943289 402.87295142 -331.90416344 399.93518652 -330.33984375 396.99609375 C-324.45857248 385.97797469 -318.47562901 375.0178438 -312.38671875 364.11328125 C-308.84778956 357.77376062 -305.33703563 351.41866736 -301.828125 345.0625 C-301.48283752 344.4370932 -301.13755005 343.8116864 -300.78179932 343.16732788 C-295.66738765 333.89993522 -290.60505549 324.60567665 -285.57714844 315.29101562 C-280.6137844 306.10863962 -275.56928036 296.97173588 -270.51831055 287.83740234 C-266.46810735 280.51108794 -262.44705631 273.16967156 -258.453125 265.8125 C-253.92095327 257.46963548 -249.26650564 249.20131304 -244.57446289 240.94750977 C-240.01959285 232.91162676 -235.61296699 224.80040272 -231.23022461 216.66967773 C-227.95236714 210.59370975 -224.63066803 204.54814761 -221.22680664 198.54199219 C-217.88274062 192.63726285 -214.59473513 186.70201777 -211.30654907 180.76602173 C-205.83275057 170.88600409 -200.3135891 161.03500391 -194.67260742 151.24926758 C-189.39746127 142.08294899 -184.40835744 132.76787393 -179.43994141 123.43261719 C-172.97849172 111.30278324 -166.38483149 99.26397944 -159.5625 87.33203125 C-157.73954602 84.14186179 -155.95338755 80.9382258 -154.21875 77.69921875 C-134.27359772 40.61594523 -99.70840405 25.25447606 -62.54309082 9.02124023 C-59.97145664 7.89424238 -57.40521009 6.75522048 -54.83854675 5.61695862 C-52.31753793 4.50174058 -49.79238868 3.39616569 -47.26589966 2.29342651 C-45.50866627 1.52430965 -43.75511997 0.74678577 -42.00170898 -0.03100586 C-27.86406709 -6.14563335 -13.53854803 -9.29273119 0 0 Z " fill="#9FCB50" transform="translate(595.640625,273.8125)"/>
<path d="M0 0 C8.91539619 -0.48743789 16.39936897 2.44237514 23.21484375 8.12890625 C37.52294179 22.07761721 45.51759296 43.93077584 54.26953125 61.65625 C55.44142919 64.01306698 56.63423336 66.35960363 57.84765625 68.6953125 C58.40195312 69.76652344 58.95625 70.83773437 59.52734375 71.94140625 C60.01203125 72.864375 60.49671875 73.78734375 60.99609375 74.73828125 C62.02734375 77.19140625 62.02734375 77.19140625 62.02734375 81.19140625 C61.36734375 81.19140625 60.70734375 81.19140625 60.02734375 81.19140625 C59.55425781 80.23363281 59.08117187 79.27585937 58.59375 78.2890625 C54.98452957 71.0123935 51.30352805 63.78739974 47.46484375 56.62890625 C44.49231488 51.06648938 41.64515146 45.46334309 38.96484375 39.75390625 C38.66570068 39.120896 38.36655762 38.48788574 38.05834961 37.83569336 C36.02734375 33.4425724 36.02734375 33.4425724 36.02734375 31.19140625 C35.36734375 30.86140625 34.70734375 30.53140625 34.02734375 30.19140625 C33.01698889 28.47091625 32.06731651 26.71446227 31.15234375 24.94140625 C29.06757678 21.00180984 26.89837905 17.61456373 24.02734375 14.19140625 C24.02734375 13.53140625 24.02734375 12.87140625 24.02734375 12.19140625 C23.03734375 12.19140625 22.04734375 12.19140625 21.02734375 12.19140625 C21.02734375 11.53140625 21.02734375 10.87140625 21.02734375 10.19140625 C20.03734375 9.86140625 19.04734375 9.53140625 18.02734375 9.19140625 C18.02734375 8.53140625 18.02734375 7.87140625 18.02734375 7.19140625 C6.7890961 3.01435845 -3.40027433 3.64001496 -14.97265625 6.19140625 C-14.97265625 6.85140625 -14.97265625 7.51140625 -14.97265625 8.19140625 C-18.27597025 9.08076002 -21.5956 9.6541473 -24.97265625 10.19140625 C-21.22265625 7.19140625 -21.22265625 7.19140625 -18.97265625 7.19140625 C-18.97265625 6.53140625 -18.97265625 5.87140625 -18.97265625 5.19140625 C-12.62977836 2.76486044 -6.78196491 0.65805204 0 0 Z " fill="#C6E458" transform="translate(574.97265625,267.80859375)"/>
<path d="M0 0 C6.48250487 -0.35442266 12.35187464 1.0033341 18.02734375 4.19140625 C20.45718762 6.63994122 22.31013899 9.20622329 24.02734375 12.19140625 C23.03734375 12.19140625 22.04734375 12.19140625 21.02734375 12.19140625 C21.02734375 11.53140625 21.02734375 10.87140625 21.02734375 10.19140625 C20.03734375 9.86140625 19.04734375 9.53140625 18.02734375 9.19140625 C18.02734375 8.53140625 18.02734375 7.87140625 18.02734375 7.19140625 C6.7890961 3.01435845 -3.40027433 3.64001496 -14.97265625 6.19140625 C-14.97265625 6.85140625 -14.97265625 7.51140625 -14.97265625 8.19140625 C-18.27597025 9.08076002 -21.5956 9.6541473 -24.97265625 10.19140625 C-21.22265625 7.19140625 -21.22265625 7.19140625 -18.97265625 7.19140625 C-18.97265625 6.53140625 -18.97265625 5.87140625 -18.97265625 5.19140625 C-12.62977836 2.76486044 -6.78196491 0.65805204 0 0 Z " fill="#D0EB5C" transform="translate(574.97265625,267.80859375)"/>
<path d="M0 0 C1.67542976 0.28604898 3.34385343 0.61781233 5 1 C5 1.66 5 2.32 5 3 C-16.78 3 -38.56 3 -61 3 C-61.33 2.34 -61.66 1.68 -62 1 C-61.23800797 1.00222061 -60.47601593 1.00444122 -59.69093323 1.00672913 C-52.52448288 1.02673157 -45.35804599 1.04197388 -38.19157505 1.05181217 C-34.50685502 1.05704008 -30.82215797 1.06413605 -27.13745117 1.07543945 C-23.58429169 1.08627162 -20.03115437 1.09227753 -16.47797966 1.09487724 C-15.11954334 1.0967309 -13.76110829 1.10035038 -12.40268135 1.10573006 C-10.50617777 1.11294475 -8.60965207 1.11340809 -6.71313477 1.11352539 C-5.09097801 1.11685631 -5.09097801 1.11685631 -3.43605042 1.12025452 C-1.05202528 1.2758197 -1.05202528 1.2758197 0 0 Z " fill="#85B453" transform="translate(331,703)"/>
<path d="M0 0 C0.53625 0.268125 1.0725 0.53625 1.625 0.8125 C0.33534824 2.18812854 -1.00189293 3.52016393 -2.375 4.8125 C-3.035 4.8125 -3.695 4.8125 -4.375 4.8125 C-4.705 5.8025 -5.035 6.7925 -5.375 7.8125 C-6.9765625 9.3203125 -6.9765625 9.3203125 -9 10.9375 C-12.92785381 14.24367911 -15.91296362 17.85296171 -18.9296875 21.9921875 C-20.375 23.8125 -20.375 23.8125 -22.375 24.8125 C-21.12339929 18.7834478 -18.89643132 15.54227632 -14.625 11.1875 C-14.11195313 10.6409375 -13.59890625 10.094375 -13.0703125 9.53125 C-3.71578749 -0.29335164 -3.71578749 -0.29335164 0 0 Z " fill="#C0E357" transform="translate(473.375,315.1875)"/>
<path d="M0 0 C-1.08065752 0.79531537 -2.16466487 1.58607993 -3.25 2.375 C-3.85328125 2.81585938 -4.4565625 3.25671875 -5.078125 3.7109375 C-9.42284126 6.62507646 -14.36021252 8.56081936 -19.125 10.6875 C-19.85332031 11.02072266 -20.58164062 11.35394531 -21.33203125 11.69726562 C-23.19549001 12.52566088 -25.09593435 13.26975944 -27 14 C-27.66 13.67 -28.32 13.34 -29 13 C-24.78432341 8.43807034 -20.05033356 6.30451616 -14.5 3.6875 C-13.54996094 3.22021484 -12.59992188 2.75292969 -11.62109375 2.27148438 C-10.70457031 1.83513672 -9.78804688 1.39878906 -8.84375 0.94921875 C-7.59368164 0.35113403 -7.59368164 0.35113403 -6.31835938 -0.2590332 C-3.73417088 -1.08496118 -2.51246828 -0.92049147 0 0 Z " fill="#CAE85B" transform="translate(515,294)"/>
<path d="M0 0 C5.20037949 4.70510525 7.66421132 11.38398685 10.5625 17.625 C11.35323934 19.32655865 12.14612186 21.02712339 12.94140625 22.7265625 C13.28888916 23.47502441 13.63637207 24.22348633 13.99438477 24.99462891 C15.06196856 27.22606809 15.06196856 27.22606809 17 30 C17 30.99 17 31.98 17 33 C17.66 33 18.32 33 19 33 C19.53229326 34.26607607 20.05044544 35.53810412 20.5625 36.8125 C20.85253906 37.52019531 21.14257812 38.22789062 21.44140625 38.95703125 C22 41 22 41 21 44 C18.00369645 38.05797359 15.01358858 32.11286035 12.02783203 26.16552734 C11.01071364 24.14136748 9.9921625 22.11792691 8.97216797 20.09521484 C7.50894738 17.19294738 6.0508462 14.28815855 4.59375 11.3828125 C4.13440063 10.47443634 3.67505127 9.56606018 3.20178223 8.63015747 C2.78134644 7.78943695 2.36091064 6.94871643 1.92773438 6.08251953 C1.55467163 5.34083527 1.18160889 4.599151 0.79724121 3.83499146 C0 2 0 2 0 0 Z " fill="#BDEB5C" transform="translate(551,434)"/>
<path d="M0 0 C-2.1862225 1.10675619 -4.37390948 2.21044378 -6.5625 3.3125 C-7.17158203 3.62123047 -7.78066406 3.92996094 -8.40820312 4.24804688 C-12.54684741 6.32831781 -16.72961172 8.20550066 -21 10 C-22.36125 10.61875 -22.36125 10.61875 -23.75 11.25 C-26 12 -26 12 -29 11 C-23.25 8 -23.25 8 -21 8 C-21 7.34 -21 6.68 -21 6 C-4.19101124 -2.09550562 -4.19101124 -2.09550562 0 0 Z " fill="#D1EB5D" transform="translate(545,281)"/>
<path d="M0 0 C2.33470194 1.45473803 4.01170253 3.06019759 6 5 C5.67 5.66 5.34 6.32 5 7 C4.59523438 6.51402344 4.19046875 6.02804687 3.7734375 5.52734375 C1.03747661 3.17104263 -1.30122896 3.52421319 -4.78515625 3.6484375 C-10.10283612 4.49251367 -12.94994398 8.93325863 -16 13 C-16.33 12.01 -16.66 11.02 -17 10 C-16.608125 9.62875 -16.21625 9.2575 -15.8125 8.875 C-14.25162274 7.26029939 -12.85179373 5.61566921 -11.4375 3.875 C-7.80003554 -0.4153427 -5.5679383 -0.55679383 0 0 Z " fill="#BBE456" transform="translate(533,406)"/>
<path d="M0 0 C2.70329311 3.29590691 4.41900085 6.75613519 6.1875 10.625 C6.71730469 11.77226563 7.24710938 12.91953125 7.79296875 14.1015625 C9 17 9 17 9 19 C9.99 19.33 10.98 19.66 12 20 C13.0625 22.625 13.0625 22.625 14 26 C14.37461567 27.29177818 14.74960953 28.58344676 15.125 29.875 C15.41375 30.90625 15.7025 31.9375 16 33 C12.98491861 30.41225742 11.57665118 27.45774093 9.86328125 23.90625 C9.43682564 23.02434998 9.43682564 23.02434998 9.00175476 22.12463379 C8.40457351 20.88551789 7.81054235 19.64487947 7.21948242 18.40283203 C6.31360575 16.50231983 5.39487431 14.60842331 4.47460938 12.71484375 C3.89505331 11.50818683 3.31625118 10.30116745 2.73828125 9.09375 C2.21274658 7.99740234 1.68721191 6.90105469 1.14575195 5.77148438 C0 3 0 3 0 0 Z " fill="#5A7C2E" transform="translate(641,626)"/>
<path d="M0 0 C0.33 0.66 0.66 1.32 1 2 C-0.14453125 4.42578125 -0.14453125 4.42578125 -1.8125 7.3125 C-3.41469897 10.10207683 -4.89317853 12.71170577 -6.01171875 15.73046875 C-7 18 -7 18 -10 20 C-8.41309324 12.98148554 -6.59614424 6.67312853 -2 1 C-1.34 0.67 -0.68 0.34 0 0 Z " fill="#AEDA54" transform="translate(413,406)"/>
<path d="M0 0 C5.37109375 2.734375 5.37109375 2.734375 7 4 C7.34109454 5.331369 7.67365194 6.66493976 8 8 C9.70350127 10.06631236 9.70350127 10.06631236 11.8125 12 C12.49957031 12.66 13.18664062 13.32 13.89453125 14 C14.93673828 14.99 14.93673828 14.99 16 16 C17.33679203 17.32986564 18.67115345 18.66219493 20 20 C15.0771702 18.52860069 12.33781101 15.72597803 8.875 12.125 C8.08802734 11.33029297 8.08802734 11.33029297 7.28515625 10.51953125 C0 3.08682753 0 3.08682753 0 0 Z " fill="#5C7E31" transform="translate(657,659)"/>
<path d="M0 0 C1.36447109 0.60036728 2.68747118 1.29325371 4 2 C4.57878906 2.30679687 5.15757812 2.61359375 5.75390625 2.9296875 C8.64828514 4.68202545 10.59514654 5.96946393 11.859375 9.1875 C12.35195282 11.45634331 12.69544517 13.69937632 13 16 C13.31657426 17.33741154 13.64475241 18.67233738 14 20 C11.09088036 17.43573041 9.44689403 14.49088866 7.5625 11.125 C5.31352004 7.1100425 2.96103361 3.52720927 0 0 Z " fill="#97C045" transform="translate(533,409)"/>
<path d="M0 0 C0.66 0.66 1.32 1.32 2 2 C1.401875 2.86625 0.80375 3.7325 0.1875 4.625 C-1.82044534 7.62619944 -3.44655098 10.73775706 -5 14 C-5.66 14 -6.32 14 -7 14 C-4.29384966 3.25740319 -4.29384966 3.25740319 0 0 Z " fill="#C2E85A" transform="translate(448,343)"/>
<path d="M0 0 C-3.79163027 2.52775351 -6.80874031 2.22443035 -11.1875 2.125 C-11.93708984 2.11597656 -12.68667969 2.10695313 -13.45898438 2.09765625 C-15.30612654 2.07412578 -17.15310412 2.03825561 -19 2 C-19 1.67 -19 1.34 -19 1 C-16.58440932 0.63645961 -14.16805703 0.28389449 -11.75 -0.0625 C-11.06808594 -0.16626953 -10.38617187 -0.27003906 -9.68359375 -0.37695312 C-6.2150075 -0.86524925 -3.33088887 -1.22762141 0 0 Z " fill="#82B34E" transform="translate(790,700)"/>
<path d="M0 0 C0.66 0.33 1.32 0.66 2 1 C-0.70615034 11.74259681 -0.70615034 11.74259681 -5 15 C-5.33 14.34 -5.66 13.68 -6 13 C-5.0390625 10.9765625 -5.0390625 10.9765625 -3.625 8.625 C-1.90220955 5.74726623 -0.64841937 3.30241495 0 0 Z " fill="#B2DC53" transform="translate(506,434)"/>
<path d="M0 0 C-0.763125 0.45375 -1.52625 0.9075 -2.3125 1.375 C-4.23632814 2.53824492 -6.12941224 3.7529415 -8 5 C-9.71444889 5.43738696 -11.44667784 5.80848688 -13.1875 6.125 C-14.08855469 6.29257812 -14.98960937 6.46015625 -15.91796875 6.6328125 C-16.60503906 6.75398438 -17.29210937 6.87515625 -18 7 C-14.98568679 4.57714777 -11.94482561 2.87243634 -8.4375 1.25 C-7.01244141 0.57710938 -7.01244141 0.57710938 -5.55859375 -0.109375 C-3 -1 -3 -1 0 0 Z " fill="#BBDD53" transform="translate(556,275)"/>
<path d="M0 0 C0.33 0.66 0.66 1.32 1 2 C0.67 2.66 0.34 3.32 0 4 C0.66 4.33 1.32 4.66 2 5 C0.1875 8 0.1875 8 -2 11 C-2.99 11 -3.98 11 -5 11 C-3.77472971 6.94718288 -2.30119506 3.55639236 0 0 Z " fill="#749D41" transform="translate(310,590)"/>
<path d="M0 0 C2 1 2 1 3 3.625 C4.02300917 7.07765596 5.02905764 10.5323487 6 14 C3.01380463 11.44040397 1.51448438 8.6059152 0 5 C-0.1875 2.125 -0.1875 2.125 0 0 Z " fill="#6D943C" transform="translate(651,645)"/>
<path d="M0 0 C0.99 0.495 0.99 0.495 2 1 C2 1.66 2 2.32 2 3 C2.66 3 3.32 3 4 3 C4.69670416 4.78810766 5.38211189 6.58062052 6.0625 8.375 C6.63677734 9.87160156 6.63677734 9.87160156 7.22265625 11.3984375 C8 14 8 14 7 16 C5.82845707 13.71070947 4.66261926 11.41881638 3.5 9.125 C3.16613281 8.47402344 2.83226562 7.82304687 2.48828125 7.15234375 C0 2.2265625 0 2.2265625 0 0 Z " fill="#D2F05F" transform="translate(641,359)"/>
<path d="M0 0 C0.609375 1.84765625 0.609375 1.84765625 1 4 C-0.75 6.4375 -0.75 6.4375 -3 9 C-4.0268343 10.6502694 -5.03567924 12.31243867 -6 14 C-6.33 13.34 -6.66 12.68 -7 12 C-5.56640625 9.1796875 -5.56640625 9.1796875 -3.5625 5.875 C-2.57443359 4.23144531 -2.57443359 4.23144531 -1.56640625 2.5546875 C-1.04949219 1.71164062 -0.53257812 0.86859375 0 0 Z " fill="#ACDC57" transform="translate(375,475)"/>
<path d="M0 0 C5.66710699 1.31793186 7.66437233 3.48709197 11 8 C10.01 8 9.02 8 8 8 C8 7.34 8 6.68 8 6 C7.01 5.67 6.02 5.34 5 5 C5 4.34 5 3.68 5 3 C2.525 2.01 2.525 2.01 0 1 C0 0.67 0 0.34 0 0 Z " fill="#EBFD68" transform="translate(588,272)"/>
<path d="M0 0 C3 1 3 1 4.1875 2.75 C5.10819096 5.29960574 5.14948718 7.30923081 5 10 C2.35534962 6.8745041 1.15585285 3.91211733 0 0 Z " fill="#B6DE56" transform="translate(676,431)"/>
<path d="M0 0 C-3.66291938 2.47785723 -6.6109185 3.48964169 -11 4 C-4.14893617 -1.38297872 -4.14893617 -1.38297872 0 0 Z " fill="#E7FD66" transform="translate(527,289)"/>
<path d="" fill="#83AE4B" transform="translate(0,0)"/>
<path d="" fill="#8BB44E" transform="translate(0,0)"/>
<path d="" fill="#A6CC53" transform="translate(0,0)"/>
<path d="M0 0 C2 1 2 1 2 1 Z " fill="#D6ED62" transform="translate(536,280)"/>
<path d="" fill="#4F5741" transform="translate(0,0)"/>
<path d="" fill="#4F5641" transform="translate(0,0)"/>
<path d="" fill="#74984A" transform="translate(0,0)"/>
<path d="" fill="#749A48" transform="translate(0,0)"/>
<path d="" fill="#779D49" transform="translate(0,0)"/>
<path d="" fill="#769C4C" transform="translate(0,0)"/>
<path d="" fill="#719947" transform="translate(0,0)"/>
<path d="" fill="#739E4A" transform="translate(0,0)"/>
<path d="" fill="#7A9F4A" transform="translate(0,0)"/>
<path d="" fill="#759E48" transform="translate(0,0)"/>
<path d="" fill="#7AA24C" transform="translate(0,0)"/>
<path d="" fill="#7AA54C" transform="translate(0,0)"/>
<path d="" fill="#7DA84E" transform="translate(0,0)"/>
<path d="" fill="#80A94E" transform="translate(0,0)"/>
<path d="" fill="#81A84A" transform="translate(0,0)"/>
<path d="" fill="#80A949" transform="translate(0,0)"/>
<path d="" fill="#7EA64C" transform="translate(0,0)"/>
<path d="" fill="#86AD4A" transform="translate(0,0)"/>
<path d="" fill="#84AE4A" transform="translate(0,0)"/>
<path d="" fill="#85AF4A" transform="translate(0,0)"/>
<path d="" fill="#87B04A" transform="translate(0,0)"/>
<path d="" fill="#8DB64C" transform="translate(0,0)"/>
<path d="" fill="#8DB94E" transform="translate(0,0)"/>
<path d="" fill="#85AE4C" transform="translate(0,0)"/>
<path d="" fill="#93BD51" transform="translate(0,0)"/>
<path d="" fill="#91BC4D" transform="translate(0,0)"/>
<path d="" fill="#9DC552" transform="translate(0,0)"/>
<path d="" fill="#99C352" transform="translate(0,0)"/>
<path d="" fill="#9EC754" transform="translate(0,0)"/>
<path d="" fill="#93BB4F" transform="translate(0,0)"/>
<path d="" fill="#9BC853" transform="translate(0,0)"/>
<path d="" fill="#A6CE51" transform="translate(0,0)"/>
<path d="" fill="#A3CA50" transform="translate(0,0)"/>
<path d="" fill="#9FCA55" transform="translate(0,0)"/>
<path d="" fill="#97C252" transform="translate(0,0)"/>
<path d="" fill="#A2CC50" transform="translate(0,0)"/>
<path d="" fill="#94BA51" transform="translate(0,0)"/>
<path d="" fill="#A2CC51" transform="translate(0,0)"/>
<path d="" fill="#A1CC53" transform="translate(0,0)"/>
<path d="" fill="#A3CF54" transform="translate(0,0)"/>
<path d="" fill="#A9D456" transform="translate(0,0)"/>
<path d="" fill="#ABD653" transform="translate(0,0)"/>
<path d="" fill="#A6CE54" transform="translate(0,0)"/>
<path d="" fill="#AAD154" transform="translate(0,0)"/>
<path d="" fill="#B1DA56" transform="translate(0,0)"/>
<path d="" fill="#ACD655" transform="translate(0,0)"/>
<path d="" fill="#A5CD51" transform="translate(0,0)"/>
<path d="" fill="#B1D551" transform="translate(0,0)"/>
<path d="" fill="#B1DB59" transform="translate(0,0)"/>
<path d="" fill="#B6DE58" transform="translate(0,0)"/>
<path d="" fill="#B4DA56" transform="translate(0,0)"/>
<path d="" fill="#BAE057" transform="translate(0,0)"/>
<path d="" fill="#B7E156" transform="translate(0,0)"/>
<path d="" fill="#A8D354" transform="translate(0,0)"/>
<path d="" fill="#A7D053" transform="translate(0,0)"/>
<path d="" fill="#BAE458" transform="translate(0,0)"/>
<path d="" fill="#B8E256" transform="translate(0,0)"/>
<path d="" fill="#BAE158" transform="translate(0,0)"/>
<path d="" fill="#B2D957" transform="translate(0,0)"/>
<path d="" fill="#B7DE5A" transform="translate(0,0)"/>
<path d="" fill="#B5DC56" transform="translate(0,0)"/>
<path d="" fill="#C2E55B" transform="translate(0,0)"/>
<path d="" fill="#546240" transform="translate(0,0)"/>
<path d="" fill="#BCDF59" transform="translate(0,0)"/>
<path d="" fill="#C6E45A" transform="translate(0,0)"/>
<path d="" fill="#C8E759" transform="translate(0,0)"/>
<path d="" fill="#CAEA5C" transform="translate(0,0)"/>
<path d="" fill="#D1EE65" transform="translate(0,0)"/>
<path d="" fill="#D1EC61" transform="translate(0,0)"/>
<path d="" fill="#CCE760" transform="translate(0,0)"/>
<path d="" fill="#CDEB61" transform="translate(0,0)"/>
<path d="" fill="#CAE860" transform="translate(0,0)"/>
<path d="" fill="#CBEA5F" transform="translate(0,0)"/>
<path d="" fill="#525943" transform="translate(0,0)"/>
<path d="" fill="#565E47" transform="translate(0,0)"/>
</svg>
