<svg width="52" height="52" viewBox="0 0 52 52" fill="none" xmlns="http://www.w3.org/2000/svg">
<path d="M0 14.4C0 9.35953 0 6.83929 0.980941 4.91409C1.8438 3.22063 3.22063 1.8438 4.91409 0.980941C6.83929 0 9.35953 0 14.4 0H37.6C42.6405 0 45.1607 0 47.0859 0.980941C48.7794 1.8438 50.1562 3.22063 51.0191 4.91409C52 6.83929 52 9.35953 52 14.4V37.6C52 42.6405 52 45.1607 51.0191 47.0859C50.1562 48.7794 48.7794 50.1562 47.0859 51.0191C45.1607 52 42.6405 52 37.6 52H14.4C9.35953 52 6.83929 52 4.91409 51.0191C3.22063 50.1562 1.8438 48.7794 0.980941 47.0859C0 45.1607 0 42.6405 0 37.6V14.4Z" fill="#0A0A0A"/>
<path fill-rule="evenodd" clip-rule="evenodd" d="M24 11H22V15H19C16.7909 15 15 16.7909 15 19V22H11V24H15V28H11V30H15V33C15 35.2091 16.7909 37 19 37H22V41H24V37H28V41H30V37H33C35.2091 37 37 35.2091 37 33V30H41V28H37V24H41V22H37V19C37 16.7909 35.2091 15 33 15H30V11H28V15H24V11ZM27 35H33C34.1046 35 35 34.1046 35 33V26H27V35ZM35 24V19C35 17.8954 34.1046 17 33 17H19C17.8954 17 17 17.8954 17 19V24H35ZM25 26H17V33C17 34.1046 17.8954 35 19 35H25V26Z" fill="#83CA17"/>
</svg>
