<svg width="220" height="40" viewBox="0 0 220 40" fill="none" xmlns="http://www.w3.org/2000/svg">
<g transform="translate(2, 4)">
<path fill-rule="evenodd" clip-rule="evenodd" d="M13 0H11V4H8C5.79086 4 4 5.79086 4 8V11H0V13H4V17H0V19H4V22C4 24.2091 5.79086 26 8 26H11V30H13V26H17V30H19V26H22C24.2091 26 26 24.2091 26 22V19H30V17H26V13H30V11H26V8C26 5.79086 24.2091 4 22 4H19V0H17V4H13V0ZM16 24H22C23.1046 24 24 23.1046 24 22V15H16V24ZM24 13V8C24 6.89543 23.1046 6 22 6H8C6.89543 6 6 6.89543 6 8V13H24ZM14 15H6V22C6 23.1046 6.89543 24 8 24H14V15Z" fill="#0A0A0A"/>
</g>
<text x="44" y="30" font-family="-apple-system, BlinkMacSystemFont, 'Segoe UI', 'Helvetica Neue', Arial, sans-serif" font-size="30" font-weight="700" letter-spacing="-0.02em" fill="#0A0A0A">authsome</text>
</svg>
